<svg xmlns="http://www.w3.org/2000/svg" width="211.47" height="211.47" viewBox="0 0 211.47 211.47"><defs><style>.a{fill:#666;}</style></defs><g transform="translate(0 0)"><path class="a" d="M514.858,529.651A105.735,105.735,0,1,0,620.593,635.386,105.717,105.717,0,0,0,514.858,529.651Zm0,40.933A37.519,37.519,0,1,1,477.339,608.1,37.521,37.521,0,0,1,514.858,570.584Zm0,146.662a81.712,81.712,0,0,1-62.464-29.074,47.538,47.538,0,0,1,42-25.5,10.252,10.252,0,0,1,3.024.471,53.249,53.249,0,0,0,34.879,0,10.254,10.254,0,0,1,3.024-.471,47.538,47.538,0,0,1,42,25.5A81.7,81.7,0,0,1,514.858,717.247Z" transform="translate(-409.123 -529.651)"/></g></svg>